<?xml version="1.0" encoding="UTF-8"?>
<svg width="150px" height="105px" viewBox="0 0 150 105" version="1.1" xmlns="http://www.w3.org/2000/svg" xmlns:xlink="http://www.w3.org/1999/xlink">
    <title>Group 7</title>
    <g id="Page-1" stroke="none" stroke-width="1" fill="none" fill-rule="evenodd">
        <g id="Home---Desktop" transform="translate(-1110.000000, -3660.000000)">
            <g id="Group-7" transform="translate(1110.000000, 3660.000000)">
                <path d="M140.4742,12.925 C131.8362,12.925 123.8312,9.441 117.9332,3.114 L117.9302,3.111 C117.0222,2.137 116.1652,1.091 115.3862,0 L105.9812,6.728 C107.0502,8.223 108.2252,9.66 109.4742,10.998 C117.4662,19.571 128.7662,24.488 140.4742,24.488 L140.4752,24.488 L140.4752,12.925 L140.4742,12.925 Z" id="Fill-1" fill="#E13B41"></path>
                <path d="M141.2798,83.6108 C135.1718,89.7188 127.0478,92.9158 118.4038,92.6118 L118.3988,92.6118 C117.0678,92.5658 115.7228,92.4318 114.4008,92.2118 L112.5078,103.6188 C114.3208,103.9198 116.1678,104.1048 117.9968,104.1678 C129.7098,104.5788 141.1768,100.0658 149.4558,91.7868 C149.4558,91.7868 149.4568,91.7868 149.4568,91.7868 L141.2798,83.6108 C141.2798,83.6108 141.2798,83.6108 141.2798,83.6108" id="Fill-3" fill="#F3A712"></path>
                <path d="M34.493,49.6561 C25.855,49.6561 17.85,46.1721 11.952,39.8451 L11.949,39.8421 C11.041,38.8681 10.184,37.8221 9.405,36.7311 L-7.10542736e-15,43.4591 C1.069,44.9541 2.244,46.3911 3.493,47.7291 C11.485,56.3021 22.785,61.2191 34.493,61.2191 L34.494,61.2191 L34.494,49.6561 L34.493,49.6561 Z" id="Fill-5" fill="#FBCAEF"></path>
            </g>
        </g>
    </g>
</svg>