<?xml version="1.0" encoding="UTF-8"?>
<svg width="123px" height="110px" viewBox="0 0 123 110" version="1.1" xmlns="http://www.w3.org/2000/svg" xmlns:xlink="http://www.w3.org/1999/xlink">
    <title>Group 10 Copy</title>
    <defs>
        <polygon id="path-1" points="0 0 24.488 0 24.488 34.4937 0 34.4937"></polygon>
        <polygon id="path-3" points="0 0 34.4936 0 34.4936 24.488 0 24.488"></polygon>
        <polygon id="path-5" points="0 0 34.494 0 34.494 24.4878 0 24.4878"></polygon>
    </defs>
    <g id="Page-1" stroke="none" stroke-width="1" fill="none" fill-rule="evenodd">
        <g id="Home---Desktop" transform="translate(-236.000000, -5132.000000)">
            <g id="Group-5" transform="translate(72.000000, 5132.000000)">
                <g id="Group-10-Copy" transform="translate(164.000000, 0.000000)">
                    <g id="Group-3" transform="translate(31.981300, 0.000000)">
                        <mask id="mask-2" fill="white">
                            <use xlink:href="#path-1"></use>
                        </mask>
                        <g id="Clip-2"></g>
                        <path d="M12.925,0.0007 C12.925,8.6387 9.441,16.6437 3.114,22.5417 L3.111,22.5447 C2.137,23.4527 1.091,24.3097 0,25.0887 L6.728,34.4937 C8.223,33.4247 9.66,32.2497 10.998,31.0007 C19.571,23.0087 24.488,11.7087 24.488,0.0007 L24.488,-0.0003 L12.925,-0.0003 L12.925,0.0007 Z" id="Fill-1" fill="#85C7F2" mask="url(#mask-2)"></path>
                    </g>
                    <g id="Group-6" transform="translate(88.072200, 66.221500)">
                        <mask id="mask-4" fill="white">
                            <use xlink:href="#path-3"></use>
                        </mask>
                        <g id="Clip-5"></g>
                        <path d="M34.493,12.925 C25.855,12.925 17.85,9.441 11.952,3.114 L11.949,3.111 C11.041,2.137 10.184,1.091 9.405,0 L0,6.728 C1.069,8.223 2.244,9.66 3.493,10.998 C11.485,19.571 22.785,24.488 34.493,24.488 L34.494,24.488 L34.494,12.925 L34.493,12.925 Z" id="Fill-4" fill="#F6C28B" mask="url(#mask-4)"></path>
                    </g>
                    <g id="Group-9" transform="translate(0.000000, 84.814200)">
                        <mask id="mask-6" fill="white">
                            <use xlink:href="#path-5"></use>
                        </mask>
                        <g id="Clip-8"></g>
                        <path d="M34.493,12.925 C25.855,12.925 17.85,9.441 11.952,3.114 L11.949,3.111 C11.041,2.137 10.184,1.091 9.405,0 L0,6.728 C1.069,8.223 2.244,9.66 3.493,10.998 C11.485,19.571 22.785,24.488 34.493,24.488 L34.494,24.488 L34.494,12.925 L34.493,12.925 Z" id="Fill-7" fill="#197278" mask="url(#mask-6)"></path>
                    </g>
                </g>
            </g>
        </g>
    </g>
</svg>