<?xml version="1.0" encoding="UTF-8"?>
<svg viewBox="0 0 122 20" version="1.1" xmlns="http://www.w3.org/2000/svg" xmlns:xlink="http://www.w3.org/1999/xlink">
    <g id="Page-1" stroke="none" stroke-width="1" fill="none" fill-rule="evenodd">
        <g id="Home---Desktop" transform="translate(-76.000000, -33.000000)">
            <g id="Group-31" transform="translate(75.999978, 32.999891)">
                <path d="M5.89008576,13.7649662 C6.39866659,13.7649662 6.87126088,13.6731851 7.30895257,13.4891868 C7.74599389,13.3058426 8.12341897,13.0499019 8.44166137,12.7220187 C8.7592534,12.3943536 9.00985845,12.0067364 9.19260936,11.5589492 C9.37536027,11.11138 9.46706091,10.6317637 9.46706091,10.1198823 C9.46706091,9.60865489 9.37536027,9.12882058 9.19260936,8.68125136 C9.00985845,8.23368215 8.7592534,7.84606497 8.44166137,7.51818182 C8.12341897,7.19051668 7.74599389,6.93457598 7.30895257,6.75057772 C6.87126088,6.56701548 6.39866659,6.47501635 5.89008576,6.47501635 C5.38085456,6.47501635 4.90826027,6.56701548 4.47121894,6.75057772 C4.03374404,6.93457598 3.65610218,7.19051668 3.33829336,7.51818182 C3.02026775,7.84606497 2.7696627,8.23368215 2.58734536,8.68125136 C2.40437766,9.12882058 2.3131106,9.60865489 2.3131106,10.1198823 C2.3131106,10.6317637 2.40437766,11.11138 2.58734536,11.5589492 C2.7696627,12.0067364 3.02026775,12.3943536 3.33829336,12.7220187 C3.65610218,13.0499019 4.03374404,13.3058426 4.47121894,13.4891868 C4.90826027,13.6731851 5.38085456,13.7649662 5.89008576,13.7649662 L5.89008576,13.7649662 Z M9.68146263,4.62849357 L11.708632,4.62849357 L11.708632,14.1726401 C11.708632,15.0359494 11.5733573,15.8231742 11.3032415,16.5347504 C11.0326921,17.2461086 10.6355395,17.8617615 10.1109164,18.3814912 C9.58629342,18.9007848 8.93831895,19.3006104 8.1674266,19.5805319 C7.39610069,19.8600174 6.509878,20.0001962 5.50832495,20.0001962 C4.71336932,20.0001962 3.92274942,19.8959887 3.13581489,19.6884456 C2.34888035,19.4804665 1.6768426,19.1846305 1.12078555,18.8011554 L0.810564249,16.2831698 C1.41453108,16.8107478 2.10196067,17.2341182 2.87350337,17.554153 C3.64439572,17.8737519 4.47490431,18.0335513 5.36546273,18.0335513 C6.65317379,18.0335513 7.6584122,17.6936778 8.38182833,17.0143667 C9.10524445,16.3348376 9.46706091,15.4678221 9.46706091,14.4126662 L9.46706091,13.8131458 C9.00573951,14.4207325 8.41759808,14.9003488 7.70220305,15.2517768 C6.9870248,15.6038587 6.17602698,15.7793547 5.27007673,15.7793547 C4.52238053,15.7793547 3.82714663,15.6437541 3.18350789,15.3716808 C2.53965236,15.1000436 1.98294495,14.7124264 1.51403603,14.2086113 C1.04491032,13.7052322 0.675289552,13.1057118 0.405173731,12.4100501 C0.134841124,11.7148245 0,10.9515806 0,10.1198823 C0,9.30453455 0.14286222,8.54565075 0.429237019,7.84170482 C0.715395031,7.13841291 1.10864551,6.53475038 1.60963882,6.03115326 C2.11019855,5.52777414 2.69465462,5.13187268 3.36235665,4.8441029 C4.03005867,4.55655112 4.74545371,4.41266623 5.50832495,4.41266623 C6.38240761,4.41266623 7.17367787,4.57682581 7.88126859,4.90405494 C8.58842574,5.23193809 9.17266502,5.70741225 9.63398642,6.33091345 L9.68146263,4.62849357 Z" id="Fill-1" fill="#1C3144"></path>
                <path d="M18.7387106,13.8369305 C19.2475082,13.8369305 19.7201025,13.7451493 20.1575774,13.5611511 C20.5948355,13.3778068 20.9722606,13.1218661 21.290503,12.793983 C21.608095,12.4663179 21.8587001,12.0787007 22.041451,11.6306954 C22.2239851,11.1833442 22.3156857,10.6956617 22.3156857,10.1678657 C22.3156857,9.64028777 22.2239851,9.1530412 22.041451,8.70503597 C21.8587001,8.25768476 21.608095,7.86570743 21.290503,7.52997602 C20.9722606,7.1942446 20.5948355,6.93459778 20.1575774,6.75059952 C19.7201025,6.56703728 19.2475082,6.47482014 18.7387106,6.47482014 C18.2296962,6.47482014 17.7571019,6.56703728 17.3198438,6.75059952 C16.8823689,6.93459778 16.5049438,7.1942446 16.187135,7.52997602 C15.8691094,7.86570743 15.6185043,8.25768476 15.436187,8.70503597 C15.2532193,9.1530412 15.1617354,9.64028777 15.1617354,10.1678657 C15.1617354,10.6956617 15.2532193,11.1833442 15.436187,11.6306954 C15.6185043,12.0787007 15.8691094,12.4663179 16.187135,12.793983 C16.5049438,13.1218661 16.8823689,13.3778068 17.3198438,13.5611511 C17.7571019,13.7451493 18.2296962,13.8369305 18.7387106,13.8369305 M18.7387106,15.8992806 C17.9121041,15.8992806 17.140995,15.7591018 16.4256,15.4796163 C15.710205,15.2001308 15.086077,14.8044474 14.5536497,14.292784 C14.0207887,13.7811206 13.6036918,13.1737519 13.3017083,12.470024 C12.9995081,11.7667321 12.8486248,10.999346 12.8486248,10.1678657 C12.8486248,9.33682145 13.0036271,8.56943536 13.3138484,7.86570743 C13.6236361,7.16241552 14.0487542,6.55526488 14.5894194,6.04316547 C15.1298678,5.53172008 15.753779,5.13189448 16.4613697,4.8441247 C17.1687437,4.55657292 17.9281463,4.41268803 18.7387106,4.41268803 C19.5494916,4.41268803 20.3127964,4.55264879 21.0281915,4.83213429 C21.7433697,5.11205581 22.3670641,5.50773926 22.899925,6.01940266 C23.4323523,6.53106606 23.8540018,7.13843471 24.1637896,7.84172662 C24.4737941,8.54567255 24.6287963,9.3206889 24.6287963,10.1678657 C24.6287963,10.999346 24.4737941,11.7625899 24.1637896,12.4582516 C23.8540018,13.1534772 23.4284502,13.7571397 22.8882185,14.2685851 C22.3473365,14.7804665 21.7234254,15.1798561 21.0160514,15.4676259 C20.3084607,15.7556137 19.5494916,15.8992806 18.7387106,15.8992806" id="Fill-4" fill="#1C3144"></path>
                <path d="M38.8006418,15.8992806 C37.8944748,15.8992806 37.0754559,15.7512535 36.3444522,15.4558535 C35.613015,15.1600174 34.9852017,14.7523436 34.4605786,14.2326139 C33.9361724,13.7135383 33.5342505,13.1057336 33.2563303,12.4100719 C32.9781934,11.7148463 32.8390166,10.9594506 32.8390166,10.1441029 C32.8390166,9.32853717 32.9940188,8.57335949 33.3042401,7.87769784 C33.6140279,7.1824722 34.0352438,6.57902769 34.5681047,6.06714628 C35.100532,5.5559189 35.7324643,5.15216917 36.4639015,4.85633312 C37.1949052,4.56049706 37.9740354,4.41268803 38.8006418,4.41268803 C39.4046087,4.41268803 39.937036,4.46043165 40.3983574,4.55657292 C40.8592452,4.65227818 41.2724401,4.78046654 41.6383755,4.94004796 L41.9245335,7.31414868 C41.5906825,7.05864399 41.1852919,6.85066492 40.7083619,6.69086549 C40.2316487,6.53106606 39.6829624,6.45083933 39.0629533,6.45083933 C38.4906373,6.45083933 37.9618954,6.54305646 37.4773778,6.72683671 C36.9919931,6.91083497 36.5746794,7.16655766 36.2252197,7.4940048 C35.8753265,7.82188794 35.6052107,8.21342926 35.4144387,8.66906475 C35.2236667,9.12491825 35.1284975,9.61652496 35.1284975,10.1441029 C35.1284975,10.6716808 35.2236667,11.1593634 35.4144387,11.6069326 C35.6052107,12.0545019 35.867739,12.4460432 36.2013732,12.7817746 C36.5352242,13.117506 36.9364958,13.3778068 37.4056215,13.5611511 C37.8745304,13.7451493 38.3872302,13.8369305 38.9437208,13.8369305 C39.6591159,13.8369305 40.2511595,13.7612819 40.7202852,13.6091127 C41.1891941,13.4573796 41.5984868,13.2613909 41.9485968,13.0218007 L41.662222,15.3479398 C41.2965033,15.4918247 40.9028193,15.6197951 40.4818202,15.7314149 C40.0606042,15.8430347 39.5002115,15.8992806 38.8006418,15.8992806" id="Fill-6" fill="#1C3144"></path>
                <path d="M48.6730933,6.37889688 C48.1961632,6.37889688 47.7430797,6.46304774 47.3136259,6.63069544 C46.8846057,6.79877916 46.506747,7.0383693 46.1811339,7.3501199 C45.8550872,7.66208851 45.5886567,8.03357314 45.3822761,8.46522782 C45.1754619,8.8971005 45.0484251,9.3764988 45.0007321,9.90407674 C46.081629,9.95225638 46.9797749,9.94004796 47.6953867,9.86810552 C48.4107817,9.79638108 48.9830978,9.67255287 49.4123348,9.49662089 C49.8415718,9.3206889 50.1474574,9.10071942 50.3304251,8.83693046 C50.5129592,8.57314149 50.6046598,8.27338129 50.6046598,7.93764988 C50.6046598,7.44233704 50.4297132,7.05864399 50.0800368,6.78657074 C49.7301436,6.51493351 49.2610179,6.37889688 48.6730933,6.37889688 M45.0007321,10.6956617 C45.0961181,11.6389797 45.4893686,12.4100719 46.1811339,13.0095923 C46.8726824,13.6091127 47.7669262,13.9088729 48.8638653,13.9088729 C49.2770601,13.9088729 49.6507998,13.8851101 49.9846508,13.8369305 C50.3185018,13.7889688 50.6285063,13.7170264 50.9146644,13.6213211 C51.2008224,13.5251799 51.4828614,13.4015697 51.7612151,13.2496185 C52.0391353,13.0976673 52.3372165,12.9099629 52.6554589,12.6860693 L52.3931474,14.940266 C51.931826,15.2278177 51.3796711,15.4597776 50.7358156,15.6354916 C50.0919601,15.8114236 49.3407953,15.8992806 48.4823212,15.8992806 C47.655498,15.8992806 46.8846057,15.7673861 46.1692106,15.5035971 C45.4535988,15.2400262 44.8416109,14.8681055 44.3328133,14.3884892 C43.8240157,13.9088729 43.4227441,13.3254851 43.1287818,12.6378897 C42.8343859,11.9509483 42.6876215,11.1911925 42.6876215,10.3599302 C42.6876215,9.51253543 42.8385048,8.72531066 43.1404882,7.99781993 C43.4424716,7.27032919 43.8597854,6.64268585 44.3926463,6.11510791 C44.9250737,5.58752998 45.5611249,5.17200785 46.3003664,4.86810552 C47.0396079,4.5646392 47.8382489,4.41247002 48.6969398,4.41247002 C49.9686086,4.41247002 50.977966,4.72422062 51.7254454,5.34793983 C52.4724912,5.97122302 52.8462309,6.81055156 52.8462309,7.86570743 C52.8462309,9.01700458 52.4206793,9.91628515 51.5704431,10.5635492 C50.7197734,11.2110312 49.4756364,11.5511227 47.8382489,11.5827338 C47.1707637,11.5988664 46.5865244,11.5310661 46.0855311,11.3791149 C45.5849714,11.2271637 45.2231549,10.999346 45.0007321,10.6956617" id="Fill-8" fill="#1C3144"></path>
                <path d="M57.4008693,14.0768694 C57.4802131,14.0768694 57.579718,14.0690211 57.6989505,14.0528886 C57.818183,14.0369741 57.9172544,14.0132112 57.9970318,13.9809462 L57.8298895,15.7073468 C57.6549429,15.7555265 57.4602687,15.7952038 57.245867,15.8272509 C57.0312485,15.859298 56.8203154,15.8754306 56.6139347,15.8754306 C55.9301905,15.8754306 55.4014486,15.6914323 55.0281424,15.3238718 C54.6544027,14.9560933 54.4677497,14.38862 54.4677497,13.6212339 L54.4677497,0.0720732505 L56.7093207,0.0241116198 L56.7093207,13.2615217 C56.7093207,13.565206 56.7808603,13.7771092 56.9239393,13.8970133 C57.0670183,14.0169174 57.2257059,14.0768694 57.4008693,14.0768694" id="Fill-10" fill="#1C3144"></path>
                <path d="M64.6500755,6.37889688 C64.1731455,6.37889688 63.720062,6.46304774 63.2906082,6.63069544 C62.8615879,6.79877916 62.4837293,7.0383693 62.1581162,7.3501199 C61.8320695,7.66208851 61.565639,8.03357314 61.3592584,8.46522782 C61.1524442,8.8971005 61.0254074,9.3764988 60.9777144,9.90407674 C62.0586112,9.95225638 62.9567572,9.94004796 63.672369,9.86810552 C64.387764,9.79638108 64.96008,9.67255287 65.3893171,9.49662089 C65.8185541,9.3206889 66.1244396,9.10071942 66.3074073,8.83693046 C66.4899415,8.57314149 66.5816421,8.27338129 66.5816421,7.93764988 C66.5816421,7.44233704 66.4066955,7.05864399 66.0570191,6.78657074 C65.7071259,6.51493351 65.2380002,6.37889688 64.6500755,6.37889688 M60.9777144,10.6956617 C61.0731004,11.6389797 61.4663508,12.4100719 62.1581162,13.0095923 C62.8496647,13.6091127 63.7439085,13.9088729 64.8408475,13.9088729 C65.2540424,13.9088729 65.6277821,13.8851101 65.9616331,13.8369305 C66.2954841,13.7889688 66.6054886,13.7170264 66.8916466,13.6213211 C67.1778046,13.5251799 67.4598437,13.4015697 67.7381974,13.2496185 C68.0161175,13.0976673 68.3141988,12.9099629 68.6324412,12.6860693 L68.3701297,14.940266 C67.9088083,15.2278177 67.3566534,15.4597776 66.7127979,15.6354916 C66.0689423,15.8114236 65.3177775,15.8992806 64.4593035,15.8992806 C63.6324803,15.8992806 62.8615879,15.7673861 62.1461929,15.5035971 C61.4305811,15.2400262 60.8185932,14.8681055 60.3097955,14.3884892 C59.8009979,13.9088729 59.3997264,13.3254851 59.105764,12.6378897 C58.8113681,11.9509483 58.6646038,11.1911925 58.6646038,10.3599302 C58.6646038,9.51253543 58.8154871,8.72531066 59.1174705,7.99781993 C59.4194539,7.27032919 59.8367677,6.64268585 60.3696286,6.11510791 C60.9020559,5.58752998 61.5381071,5.17200785 62.2773487,4.86810552 C63.0165902,4.5646392 63.8152312,4.41247002 64.673922,4.41247002 C65.9455909,4.41247002 66.9549482,4.72422062 67.7024277,5.34793983 C68.4494735,5.97122302 68.8232132,6.81055156 68.8232132,7.86570743 C68.8232132,9.01700458 68.3976616,9.91628515 67.5474254,10.5635492 C66.6967557,11.2110312 65.4526187,11.5511227 63.8152312,11.5827338 C63.147746,11.5988664 62.5635067,11.5310661 62.0625134,11.3791149 C61.5619536,11.2271637 61.2001372,10.999346 60.9777144,10.6956617" id="Fill-12" fill="#1C3144"></path>
                <path d="M76.3345358,13.8369305 C76.8431167,13.8369305 77.3159278,13.7412252 77.7534027,13.5493787 C78.1906608,13.3575322 78.5680858,13.0976673 78.8863282,12.7697842 C79.2039203,12.442555 79.4545253,12.0545019 79.6372762,11.6069326 C79.8198104,11.1593634 79.911511,10.6714628 79.911511,10.1441029 C79.911511,9.61652496 79.8198104,9.12884238 79.6372762,8.68127316 C79.4545253,8.23370395 79.2039203,7.84608677 78.8863282,7.51820362 C78.5680858,7.19053848 78.1906608,6.93459778 77.7534027,6.75059952 C77.3159278,6.56703728 76.8431167,6.47482014 76.3345358,6.47482014 C75.8255214,6.47482014 75.3527104,6.57074341 74.915669,6.76280794 C74.4781941,6.95465446 74.1007691,7.21451929 73.7829602,7.54196643 C73.4649346,7.86984957 73.2143296,8.25768476 73.0317955,8.70503597 C72.8488278,9.1530412 72.7575607,9.6324395 72.7575607,10.1441029 C72.7575607,10.6714628 72.8488278,11.1593634 73.0317955,11.6069326 C73.2143296,12.0545019 73.4649346,12.442555 73.7829602,12.7697842 C74.1007691,13.0976673 74.4781941,13.3575322 74.915669,13.5493787 C75.3527104,13.7412252 75.8255214,13.8369305 76.3345358,13.8369305 M76.6922334,4.43645084 C77.47093,4.43645084 78.1945629,4.58033573 78.862265,4.86810552 C79.529967,5.15609331 80.114423,5.55155875 80.6149828,6.05537388 C81.1157593,6.558753 81.5092266,7.15827338 81.7953846,7.85393503 C82.0815426,8.54916067 82.2246216,9.31284064 82.2246216,10.1441029 C82.2246216,10.9594506 82.0815426,11.7187704 81.7953846,12.4222804 C81.5092266,13.1257903 81.1157593,13.7331589 80.6149828,14.2446043 C80.114423,14.7564857 79.525848,15.1560933 78.8503417,15.4436451 C78.1744018,15.7314149 77.4553214,15.8755178 76.6922334,15.8755178 C75.7860663,15.8755178 74.9670474,15.6993678 74.2360438,15.3479398 C73.5046065,14.9962939 72.908444,14.4846305 72.4475562,13.8131676 L72.2567842,15.6594724 L70.4921431,15.6594724 L70.4921431,0.119904077 L72.7575607,0 L72.7575607,6.13908873 C73.7430715,5.00414214 75.0546291,4.43645084 76.6922334,4.43645084" id="Fill-14" fill="#1C3144"></path>
                <path d="M89.5693006,4.41257903 C89.7442472,4.41257903 89.8829904,4.41672117 89.9866143,4.42456944 C90.0898046,4.43285372 90.205135,4.45269239 90.3326054,4.48452147 L90.2133729,6.64257685 C89.9746911,6.57913669 89.680512,6.54687159 89.3308356,6.54687159 C88.8062125,6.54687159 88.3451079,6.63908873 87.9479553,6.82265097 C87.5503691,7.00643122 87.2204202,7.25430565 86.9581087,7.56605625 C86.6957972,7.87780685 86.4967873,8.23359494 86.3619462,8.63298452 C86.2266715,9.03281012 86.1594677,9.44855025 86.1594677,9.88020493 L86.1594677,15.6595814 L83.8938333,15.6595814 L83.8938333,7.67396991 L83.7269078,4.65238718 L85.8492464,4.41257903 L85.9686957,6.7147373 C86.1909017,6.07553957 86.6123344,5.53182908 87.2325602,5.08404186 C87.8523525,4.63647264 88.6312659,4.41257903 89.5693006,4.41257903" id="Fill-17" fill="#1C3144"></path>
                <path d="M96.3891614,13.8369305 C96.897959,13.8369305 97.374889,13.7451493 97.8201682,13.5611511 C98.2647971,13.3778068 98.6463411,13.1218661 98.9645835,12.793983 C99.2826091,12.4663179 99.5327806,12.0787007 99.7159651,11.6306954 C99.8982824,11.1833442 99.989983,10.6956617 99.989983,10.1678657 C99.989983,9.64028777 99.8982824,9.14868106 99.7159651,8.69304556 C99.5327806,8.23741007 99.2826091,7.84608677 98.9645835,7.51820362 C98.6463411,7.19053848 98.2647971,6.93459778 97.8201682,6.75059952 C97.374889,6.56703728 96.897959,6.47482014 96.3891614,6.47482014 C95.896406,6.47482014 95.4311824,6.56703728 94.9941411,6.75059952 C94.556883,6.93459778 94.1794579,7.19053848 93.8614323,7.51820362 C93.5431899,7.84608677 93.2930184,8.23741007 93.1102675,8.69304556 C92.9272998,9.14868106 92.8360327,9.64028777 92.8360327,10.1678657 C92.8360327,10.6956617 92.9272998,11.1833442 93.1102675,11.6306954 C93.2930184,12.0787007 93.5431899,12.4663179 93.8614323,12.793983 C94.1794579,13.1218661 94.556883,13.3778068 94.9941411,13.5611511 C95.4311824,13.7451493 95.896406,13.8369305 96.3891614,13.8369305 M102.923319,14.0769566 C103.018489,14.0769566 103.121896,14.0688903 103.233107,14.0527578 C103.344102,14.0370613 103.423879,14.0132985 103.471572,13.9808153 L103.32871,15.7074341 C103.185631,15.7394811 103.002663,15.7754524 102.780024,15.8153477 C102.557167,15.8552431 102.342766,15.8755178 102.136385,15.8755178 C101.563852,15.8755178 101.086922,15.7434053 100.705378,15.4796163 C100.323834,15.2158273 100.093173,14.7961631 100.014046,14.2208415 C99.5048151,14.7484194 98.9129883,15.1600174 98.2372652,15.4558535 C97.5613253,15.7512535 96.8183984,15.8992806 96.0076174,15.8992806 C95.2447461,15.8992806 94.5250154,15.7556137 93.849509,15.4676259 C93.1737859,15.1798561 92.5895466,14.7804665 92.0967912,14.2685851 C91.6040358,13.7571397 91.2144707,13.1534772 90.9285294,12.4582516 C90.6421546,11.7625899 90.4990756,10.999346 90.4990756,10.1678657 C90.4990756,9.33682145 90.6421546,8.56943536 90.9285294,7.86570743 C91.2144707,7.16241552 91.6079379,6.55526488 92.1087145,6.04316547 C92.609491,5.53172008 93.193947,5.13189448 93.8614323,4.8441247 C94.5291343,4.55657292 95.2447461,4.41268803 96.0076174,4.41268803 C96.8500492,4.41268803 97.6250605,4.5646392 98.3326512,4.86810552 C99.0400252,5.17200785 99.6478942,5.6117288 100.156909,6.18705036 L100.276358,4.62851537 L102.231554,4.62851537 L102.231554,13.2613909 C102.231554,13.5652932 102.294856,13.7771964 102.422326,13.8968825 C102.549363,14.0167866 102.716505,14.0769566 102.923319,14.0769566" id="Fill-19" fill="#1C3144"></path>
                <path d="M108.717629,15.8992806 C108.161138,15.8992806 107.644753,15.823196 107.167823,15.6714628 C106.690676,15.5199477 106.281384,15.2840637 105.939728,14.9640288 C105.597423,14.6444299 105.331643,14.2411162 105.140654,13.7529976 C104.949882,13.265533 104.854713,12.6860693 104.854713,12.0146065 L104.878342,1.43884892 L107.096284,1.17505995 L107.096284,4.62851537 L111.269205,4.62851537 L111.150189,6.57074341 L107.096284,6.57074341 L107.096284,11.6546763 C107.096284,12.470242 107.29486,13.0455635 107.692446,13.381295 C108.089599,13.7170264 108.582571,13.8851101 109.170929,13.8851101 C109.726986,13.8851101 110.19221,13.8212339 110.565733,13.6932636 C110.939256,13.5652932 111.245358,13.4137781 111.48404,13.2374101 L111.293268,15.3717026 C111.022719,15.5155875 110.676944,15.6398518 110.255945,15.7434053 C109.834296,15.8473948 109.321596,15.8992806 108.717629,15.8992806" id="Fill-21" fill="#1C3144"></path>
                <path d="M117.826884,6.37889688 C117.349954,6.37889688 116.89687,6.46304774 116.467417,6.63069544 C116.038396,6.79877916 115.660538,7.0383693 115.334925,7.3501199 C115.008878,7.66208851 114.742447,8.03357314 114.536067,8.46522782 C114.329253,8.8971005 114.202216,9.3764988 114.154523,9.90407674 C115.23542,9.95225638 116.133566,9.94004796 116.849177,9.86810552 C117.564572,9.79638108 118.136889,9.67255287 118.566126,9.49662089 C118.995363,9.3206889 119.301248,9.10071942 119.484216,8.83693046 C119.66675,8.57314149 119.758451,8.27338129 119.758451,7.93764988 C119.758451,7.44233704 119.583504,7.05864399 119.233828,6.78657074 C118.883934,6.51493351 118.414809,6.37889688 117.826884,6.37889688 M114.154523,10.6956617 C114.249909,11.6389797 114.643159,12.4100719 115.334925,13.0095923 C116.026473,13.6091127 116.920717,13.9088729 118.017656,13.9088729 C118.430851,13.9088729 118.804591,13.8851101 119.138442,13.8369305 C119.472293,13.7889688 119.782297,13.7170264 120.068455,13.6213211 C120.354613,13.5251799 120.636652,13.4015697 120.915006,13.2496185 C121.192926,13.0976673 121.491007,12.9099629 121.80925,12.6860693 L121.546938,14.940266 C121.085617,15.2278177 120.533462,15.4597776 119.889606,15.6354916 C119.245751,15.8114236 118.494586,15.8992806 117.636112,15.8992806 C116.809289,15.8992806 116.038396,15.7673861 115.323001,15.5035971 C114.60739,15.2400262 113.995402,14.8681055 113.486604,14.3884892 C112.977806,13.9088729 112.576535,13.3254851 112.282573,12.6378897 C111.988177,11.9509483 111.841412,11.1911925 111.841412,10.3599302 C111.841412,9.51253543 111.992296,8.72531066 112.294279,7.99781993 C112.596262,7.27032919 113.013576,6.64268585 113.546437,6.11510791 C114.078864,5.58752998 114.714916,5.17200785 115.454157,4.86810552 C116.193399,4.5646392 116.99204,4.41247002 117.85073,4.41247002 C119.122399,4.41247002 120.131757,4.72422062 120.879236,5.34793983 C121.626282,5.97122302 122.000022,6.81055156 122.000022,7.86570743 C122.000022,9.01700458 121.57447,9.91628515 120.724234,10.5635492 C119.873564,11.2110312 118.629427,11.5511227 116.99204,11.5827338 C116.324554,11.5988664 115.740315,11.5310661 115.239322,11.3791149 C114.738762,11.2271637 114.376946,10.999346 114.154523,10.6956617" id="Fill-23" fill="#1C3144"></path>
                <path d="M33.2907777,16.3385001 C33.4737454,16.1412034 33.6439227,15.9319163 33.8002257,15.7121648" id="Stroke-25" stroke="#F3A712" stroke-width="1.95107736"></path>
                <path d="M28.7733399,19.2965991 C26.7977657,19.2965991 24.8911295,18.4622847 23.5425015,17.0075213 L24.969823,15.6696098 C25.9650892,16.7432963 27.3156683,17.3345324 28.7733399,17.3345324 C30.2310115,17.3345324 31.5818074,16.7432963 32.5770736,15.6696098 L34.0043951,17.0075213 C32.6557671,18.4622847 30.7491309,19.2965991 28.7733399,19.2965991" id="Fill-27" fill="#F3A712"></path>
                <path d="M23.7465842,15.712143 C23.9028872,15.9321125 24.0732813,16.1411816 24.2560322,16.3384783" id="Stroke-29" stroke="#F3A712" stroke-width="1.95107736"></path>
            </g>
        </g>
    </g>
</svg>