<?xml version="1.0" standalone="no"?>
<!DOCTYPE svg PUBLIC "-//W3C//DTD SVG 20010904//EN"
 "http://www.w3.org/TR/2001/REC-SVG-20010904/DTD/svg10.dtd">
<svg version="1.0" xmlns="http://www.w3.org/2000/svg"
 width="256.000000pt" height="256.000000pt" viewBox="0 0 256.000000 256.000000"
 preserveAspectRatio="xMidYMid meet">
<metadata>
Created by potrace 1.14, written by Peter Selinger 2001-2017
</metadata>
<g transform="translate(0.000000,256.000000) scale(0.100000,-0.100000)"
fill="#000000" stroke="none">
<path d="M1081 2504 c-397 -57 -756 -309 -936 -658 -93 -180 -127 -317 -131
-541 -3 -163 -1 -182 32 -344 36 -176 168 -407 318 -556 193 -192 453 -317
733 -353 109 -13 352 -7 448 13 509 102 899 482 1000 975 16 75 15 392 -1 475
-46 241 -158 455 -331 630 -177 181 -385 292 -646 346 -127 26 -350 32 -486
13z m399 -455 c278 -71 474 -271 557 -569 22 -77 25 -286 6 -375 -75 -355
-354 -595 -709 -612 -232 -12 -401 46 -579 198 -84 72 -179 237 -216 374 -29
108 -31 298 -5 405 33 136 116 288 204 377 103 105 253 185 394 212 82 15 268
10 348 -10z"/>
<path d="M900 1123 c-25 -9 -235 -96 -238 -99 -2 -1 7 -22 19 -46 207 -408
751 -501 1074 -183 64 63 133 161 149 212 6 18 -40 41 -241 120 -6 3 -22 -14
-33 -38 -68 -133 -239 -218 -398 -198 -111 14 -243 106 -288 199 -10 22 -21
39 -24 39 -3 0 -12 -3 -20 -6z"/>
</g>
</svg>
