<svg width="24" height="24" viewBox="0 0 24 24" fill="none" xmlns="http://www.w3.org/2000/svg">
<path fill-rule="evenodd" clip-rule="evenodd" d="M0 6.5C0 4.98122 1.23122 3.75 2.75 3.75H14.5812C17.7988 3.75 20.5691 6.0211 21.2001 9.17622L21.6077 11.2142C21.6271 11.3112 21.702 11.3877 21.7986 11.4092L22.6296 11.5938C23.4303 11.7718 24 12.4819 24 13.3022V18C24 18.9657 23.2182 19.75 22.2509 19.75H20.6465C20.32 20.9043 19.2588 21.75 18 21.75C16.7412 21.75 15.68 20.9043 15.3535 19.75H8.64648C8.32002 20.9043 7.25878 21.75 6 21.75C4.74122 21.75 3.67998 20.9043 3.35352 19.75H1.75003C0.783556 19.75 0 18.9665 0 18V6.5ZM16.75 19C16.75 19.6904 17.3096 20.25 18 20.25C18.6904 20.25 19.25 19.6904 19.25 19C19.25 18.3096 18.6904 17.75 18 17.75C17.3096 17.75 16.75 18.3096 16.75 19ZM20.6465 18.25C20.32 17.0957 19.2588 16.25 18 16.25C16.7412 16.25 15.68 17.0957 15.3535 18.25H8.64648C8.32002 17.0957 7.25878 16.25 6 16.25C4.74122 16.25 3.67998 17.0957 3.35352 18.25H1.75003C1.61193 18.25 1.5 18.138 1.5 18V13.75H4H6H14C14.9665 13.75 15.75 12.9665 15.75 12V5.38117C17.7305 5.83269 19.3169 7.40894 19.7292 9.47039L20.1368 11.5083C20.2727 12.1878 20.7967 12.7231 21.4732 12.8735L22.3042 13.0581C22.4186 13.0835 22.5 13.185 22.5 13.3022V18C22.5 18.1389 22.3881 18.25 22.2509 18.25H20.6465ZM3.25 12.25H1.5V6.5C1.5 6.40213 1.51125 6.30689 1.53252 6.21549C1.98122 7.12463 2.91758 7.75 4 7.75C4.78802 7.75 5.49862 7.41855 6 6.88747C6.50139 7.41855 7.21199 7.75 8 7.75C8.78802 7.75 9.49862 7.41855 10 6.88747C10.5014 7.41855 11.212 7.75 12 7.75C12.9301 7.75 13.7523 7.28828 14.25 6.58154V12C14.25 12.1381 14.1381 12.25 14 12.25H6.75V11.5C6.75 11.0858 6.41421 10.75 6 10.75C5.58579 10.75 5.25 11.0858 5.25 11.5V12.25H4.75V10.5C4.75 10.0858 4.41421 9.75 4 9.75C3.58579 9.75 3.25 10.0858 3.25 10.5V12.25ZM13.225 5.25H10.775C10.8908 5.82056 11.3953 6.25 12 6.25C12.6047 6.25 13.1092 5.82056 13.225 5.25ZM8 6.25C7.39526 6.25 6.89082 5.82056 6.775 5.25H9.225C9.10918 5.82056 8.60474 6.25 8 6.25ZM2.775 5.25C2.89082 5.82056 3.39526 6.25 4 6.25C4.60474 6.25 5.10918 5.82056 5.225 5.25H2.775ZM6 17.75C6.69036 17.75 7.25 18.3096 7.25 19C7.25 19.6904 6.69036 20.25 6 20.25C5.30964 20.25 4.75 19.6904 4.75 19C4.75 18.3096 5.30964 17.75 6 17.75Z" fill="#1C3144" fill-opacity="0.6"/>
</svg>
