<svg width="24" height="24" viewBox="0 0 24 24" fill="none" xmlns="http://www.w3.org/2000/svg">
<path fill-rule="evenodd" clip-rule="evenodd" d="M7.75 12C7.75 9.10051 10.1005 6.75 13 6.75C15.8995 6.75 18.25 9.10051 18.25 12C18.25 14.8995 15.8995 17.25 13 17.25C10.1005 17.25 7.75 14.8995 7.75 12ZM13 5.25C9.27208 5.25 6.25 8.27208 6.25 12C6.25 15.7279 9.27208 18.75 13 18.75C16.7279 18.75 19.75 15.7279 19.75 12C19.75 8.27208 16.7279 5.25 13 5.25ZM3.5 7C3.5 6.58579 3.16421 6.25 2.75 6.25C2.33579 6.25 2 6.58579 2 7V9.00009C1.69639 8.77204 1.5 8.40895 1.5 8V7C1.5 6.58579 1.16421 6.25 0.75 6.25C0.335786 6.25 0 6.58579 0 7V8C0 9.25878 0.845748 10.32 2 10.6465V17C2 17.4142 2.33579 17.75 2.75 17.75C3.16421 17.75 3.5 17.4142 3.5 17V10.6465C4.65425 10.32 5.5 9.25878 5.5 8V7C5.5 6.58579 5.16421 6.25 4.75 6.25C4.33579 6.25 4 6.58579 4 7V8C4 8.40895 3.80361 8.77204 3.5 9.00009V7ZM23.3801 6.26137C23.7386 6.32453 24 6.63599 24 7V13V17C24 17.4142 23.6642 17.75 23.25 17.75C22.8358 17.75 22.5 17.4142 22.5 17V13.5856L21.0681 13.2276C20.862 13.1761 20.6874 13.0396 20.5877 12.852C20.488 12.6644 20.4726 12.4433 20.5452 12.2437L22.5452 6.74369C22.6696 6.4016 23.0216 6.19822 23.3801 6.26137ZM22.5 12.0394V11.2571L22.2392 11.9742L22.5 12.0394Z" fill="#1C3144" fill-opacity="0.6"/>
</svg>
