<svg width="24" height="24" viewBox="0 0 24 24" fill="none" xmlns="http://www.w3.org/2000/svg">
<path fill-rule="evenodd" clip-rule="evenodd" d="M20.1233 2.7398C20.5319 2.6717 20.8079 2.28528 20.7398 1.8767C20.6717 1.46813 20.2853 1.19211 19.8767 1.26021L15.1702 2.04463C14.0902 2.22462 13.2199 3.02808 12.9544 4.09024L12.6644 5.25H7C6.0335 5.25 5.25 6.0335 5.25 7V8.39922C5.25 8.4227 5.2502 8.44616 5.25061 8.46959C5.2502 8.47968 5.25 8.48982 5.25 8.5C5.25 8.52578 5.2513 8.55126 5.25384 8.57637C5.30476 9.74995 5.85973 10.8483 6.78148 11.5857L7.35065 12.041C7.60306 12.2429 7.75 12.5486 7.75 12.8719V13C7.75 15.0913 9.26049 16.8298 11.25 17.184V20.25H8.5C8.08579 20.25 7.75 20.5858 7.75 21C7.75 21.4142 8.08579 21.75 8.5 21.75H11.9983L12 21.75L12.0017 21.75H15.5C15.9142 21.75 16.25 21.4142 16.25 21C16.25 20.5858 15.9142 20.25 15.5 20.25H12.75V17.184C14.7395 16.8298 16.25 15.0913 16.25 13V12.8719C16.25 12.5486 16.3969 12.2429 16.6493 12.041L17.2185 11.5857C18.1403 10.8483 18.6952 9.74995 18.7462 8.57637C18.7487 8.55126 18.75 8.52578 18.75 8.5C18.75 8.48982 18.7498 8.47968 18.7494 8.46959C18.7498 8.44616 18.75 8.4227 18.75 8.39922V7C18.75 6.0335 17.9665 5.25 17 5.25H14.2106L14.4096 4.45405C14.5303 3.97125 14.9259 3.60604 15.4168 3.52422L20.1233 2.7398ZM12.2894 6.75H7C6.86193 6.75 6.75 6.86193 6.75 7V7.75H12.0394L12.2894 6.75ZM13.5856 7.75L13.8356 6.75H17C17.1381 6.75 17.25 6.86193 17.25 7V7.75H13.5856ZM11.6644 9.25L10.7724 12.8181C10.6719 13.2199 10.9163 13.6271 11.3181 13.7276C11.7199 13.8281 12.1271 13.5838 12.2276 13.1819L13.2106 9.25H17.1057C16.9477 9.70255 16.6647 10.1078 16.2815 10.4144L15.7123 10.8697C15.1041 11.3563 14.75 12.093 14.75 12.8719V13C14.75 14.5188 13.5188 15.75 12 15.75C10.4812 15.75 9.25 14.5188 9.25 13V12.8719C9.25 12.093 8.89593 11.3563 8.2877 10.8697L7.71852 10.4144C7.3353 10.1078 7.05232 9.70255 6.89427 9.25H11.6644Z" fill="#1C3144" fill-opacity="0.6"/>
</svg>
